<svg width="185" height="22" viewBox="0 0 185 22" fill="none" xmlns="http://www.w3.org/2000/svg">
<path d="M17.6715 10.4592C20.0616 10.4592 21.9993 8.52154 21.9993 6.13133C21.9993 3.74112 20.0616 1.80347 17.6715 1.80347C15.2813 1.80347 13.3436 3.74112 13.3436 6.13133C13.3436 8.52154 15.2813 10.4592 17.6715 10.4592Z" fill="#F86A35"/>
<path d="M7.29154 2.1512C8.93977 -0.717066 13.0602 -0.717066 14.7084 2.1512L21.451 13.8849C23.4401 17.3466 19.6434 21.2485 16.154 19.3285C12.9429 17.5616 9.05694 17.5616 5.846 19.3285C2.35663 21.2485 -1.44017 17.3466 0.549033 13.8849L7.29154 2.1512Z" fill="url(#paint0_linear_572_1097)"/>
<path d="M17.6715 10.4588C15.2813 10.4588 13.3436 8.52115 13.3436 6.13093C13.3436 4.73657 14.0031 3.49622 15.027 2.70471L19.3379 10.1263C18.825 10.3405 18.262 10.4588 17.6715 10.4588Z" fill="#EB483E"/>
<path d="M38.3992 13.6869H32.5818L31.554 16.5944H28.4912L33.8357 2.30259H37.1452L42.4692 16.5944H39.4064L38.3992 13.6869ZM37.618 11.4961L35.4802 5.39438L33.3424 11.4961H37.618Z" fill="black"/>
<path d="M50.8376 5.10773C51.7968 5.10773 52.6602 5.33978 53.4276 5.80389C54.195 6.268 54.7911 6.94369 55.216 7.83096C55.6545 8.70458 55.8738 9.73518 55.8738 10.9228C55.8738 12.1103 55.6545 13.1477 55.216 14.035C54.7911 14.9086 54.195 15.5775 53.4276 16.0416C52.6602 16.5057 51.7968 16.7378 50.8376 16.7378C49.8783 16.7378 49.056 16.5125 48.3708 16.0621C47.6994 15.598 47.2197 14.9837 46.9319 14.2193V22H44.0336V5.25106H46.9319V7.60573C47.2197 6.84132 47.6994 6.23388 48.3708 5.78342C49.056 5.33296 49.8783 5.10773 50.8376 5.10773ZM49.9331 7.62621C49.056 7.62621 48.3297 7.92651 47.7542 8.52713C47.1923 9.11409 46.9114 9.91263 46.9114 10.9228C46.9114 11.9192 47.1923 12.7178 47.7542 13.3184C48.3297 13.9053 49.056 14.1988 49.9331 14.1988C50.8376 14.1988 51.5639 13.9122 52.112 13.3389C52.6602 12.7519 52.9343 11.9465 52.9343 10.9228C52.9343 9.89898 52.6602 9.09361 52.112 8.50665C51.5639 7.91969 50.8376 7.62621 49.9331 7.62621Z" fill="black"/>
<path d="M64.7288 5.10773C65.6881 5.10773 66.5515 5.33978 67.3189 5.80389C68.0863 6.268 68.6824 6.94369 69.1073 7.83096C69.5458 8.70458 69.765 9.73518 69.765 10.9228C69.765 12.1103 69.5458 13.1477 69.1073 14.035C68.6824 14.9086 68.0863 15.5775 67.3189 16.0416C66.5515 16.5057 65.6881 16.7378 64.7288 16.7378C63.7696 16.7378 62.9473 16.5125 62.2621 16.0621C61.5906 15.598 61.111 14.9837 60.8232 14.2193V22H57.9248V5.25106H60.8232V7.60573C61.111 6.84132 61.5906 6.23388 62.2621 5.78342C62.9473 5.33296 63.7696 5.10773 64.7288 5.10773ZM63.8244 7.62621C62.9473 7.62621 62.221 7.92651 61.6455 8.52713C61.0836 9.11409 60.8027 9.91263 60.8027 10.9228C60.8027 11.9192 61.0836 12.7178 61.6455 13.3184C62.221 13.9053 62.9473 14.1988 63.8244 14.1988C64.7288 14.1988 65.4552 13.9122 66.0033 13.3389C66.5515 12.7519 66.8255 11.9465 66.8255 10.9228C66.8255 9.89898 66.5515 9.09361 66.0033 8.50665C65.4552 7.91969 64.7288 7.62621 63.8244 7.62621Z" fill="black"/>
<path d="M75.7423 5.10773C77.1264 5.10773 78.2364 5.45581 79.0724 6.15197C79.9083 6.84814 80.429 7.77636 80.6346 8.93663H77.9212C77.8116 8.39062 77.5649 7.95381 77.1812 7.62621C76.7975 7.2986 76.2973 7.1348 75.6806 7.1348C75.1873 7.1348 74.8036 7.25082 74.5295 7.48288C74.2554 7.71493 74.1184 8.02889 74.1184 8.42475C74.1184 8.73871 74.228 8.99123 74.4473 9.18234C74.6665 9.37344 74.9406 9.5236 75.2695 9.6328C75.5984 9.742 76.0712 9.87168 76.6879 10.0218C77.5512 10.2129 78.2501 10.4177 78.7846 10.6361C79.3327 10.8408 79.7987 11.1753 80.1824 11.6394C80.5798 12.0899 80.7785 12.7041 80.7785 13.4822C80.7785 14.4514 80.3948 15.2362 79.6274 15.8369C78.8736 16.4375 77.8527 16.7378 76.5645 16.7378C75.0845 16.7378 73.8991 16.4102 73.0084 15.755C72.1176 15.0861 71.5763 14.1374 71.3845 12.9089H74.1595C74.228 13.4685 74.4747 13.9122 74.8995 14.2398C75.3243 14.5537 75.8793 14.7107 76.5645 14.7107C77.0579 14.7107 77.4347 14.5947 77.6951 14.3626C77.9555 14.1169 78.0857 13.803 78.0857 13.4208C78.0857 13.0931 77.9692 12.827 77.7362 12.6222C77.517 12.4175 77.236 12.2605 76.8934 12.1513C76.5645 12.0421 76.0918 11.9124 75.4751 11.7622C74.6254 11.5711 73.9334 11.38 73.3989 11.1889C72.8782 10.9842 72.426 10.6634 72.0422 10.2266C71.6722 9.78978 71.4872 9.18916 71.4872 8.42475C71.4872 7.44193 71.8641 6.64339 72.6178 6.02912C73.3715 5.41486 74.413 5.10773 75.7423 5.10773Z" fill="black"/>
<path d="M91.9407 2.13879V4.43204H85.8356V8.3019H90.7279V10.5132H85.8356V16.5944H82.9372V2.13879H91.9407Z" fill="black"/>
<path d="M99.16 5.10773C100.27 5.10773 101.264 5.33978 102.141 5.80389C103.031 6.268 103.73 6.94369 104.237 7.83096C104.744 8.70458 104.998 9.73518 104.998 10.9228C104.998 12.1103 104.744 13.1409 104.237 14.0145C103.73 14.8882 103.031 15.5638 102.141 16.0416C101.264 16.5057 100.27 16.7378 99.16 16.7378C98.0499 16.7378 97.0496 16.5057 96.1588 16.0416C95.2818 15.5638 94.5897 14.8882 94.0827 14.0145C93.5756 13.1409 93.3221 12.1103 93.3221 10.9228C93.3221 9.73518 93.5756 8.70458 94.0827 7.83096C94.5897 6.94369 95.2818 6.268 96.1588 5.80389C97.0496 5.33978 98.0499 5.10773 99.16 5.10773ZM99.16 7.60573C98.3514 7.60573 97.6662 7.89239 97.1044 8.4657C96.5425 9.02536 96.2616 9.84438 96.2616 10.9228C96.2616 12.0011 96.5425 12.827 97.1044 13.4003C97.6662 13.9599 98.3514 14.2398 99.16 14.2398C99.9685 14.2398 100.654 13.9599 101.216 13.4003C101.777 12.827 102.058 12.0011 102.058 10.9228C102.058 9.84438 101.777 9.02536 101.216 8.4657C100.654 7.89239 99.9685 7.60573 99.16 7.60573Z" fill="black"/>
<path d="M109.945 7.42145C110.369 6.69799 110.931 6.1315 111.63 5.72199C112.329 5.29883 113.11 5.08725 113.974 5.08725V8.17904H113.131C111.007 8.17904 109.945 9.16186 109.945 11.1275V16.5944H107.046V5.25106H109.945V7.42145Z" fill="black"/>
<path d="M123.677 9.14139C124.554 9.31884 125.253 9.73518 125.773 10.3904C126.308 11.032 126.575 11.7895 126.575 12.6632C126.575 13.878 126.164 14.8404 125.342 15.5502C124.533 16.2464 123.355 16.5944 121.806 16.5944H115.578V2.13879H121.683C123.149 2.13879 124.273 2.45957 125.054 3.10114C125.849 3.7427 126.246 4.64362 126.246 5.80389C126.246 6.70481 126.006 7.44193 125.527 8.01524C125.061 8.58855 124.444 8.96393 123.677 9.14139ZM118.476 8.19952H121.087C121.813 8.19952 122.361 8.04254 122.731 7.72858C123.115 7.40098 123.307 6.93687 123.307 6.33625C123.307 5.73564 123.122 5.27153 122.752 4.94393C122.382 4.61632 121.813 4.45251 121.046 4.45251H118.476V8.19952ZM121.231 14.2398C121.998 14.2398 122.587 14.076 122.998 13.7484C123.41 13.4071 123.615 12.9157 123.615 12.2741C123.615 11.6326 123.403 11.1412 122.978 10.7999C122.567 10.445 121.977 10.2675 121.21 10.2675H118.476V14.2398H121.231Z" fill="black"/>
<path d="M135.389 5.08725C136.705 5.08725 137.753 5.51724 138.534 6.37721C139.315 7.23717 139.706 8.44522 139.706 10.0014V16.5944H136.828V10.329C136.828 9.42805 136.595 8.73188 136.129 8.24047C135.663 7.73541 135.026 7.48288 134.218 7.48288C133.395 7.48288 132.738 7.74906 132.244 8.28142C131.751 8.81378 131.504 9.5782 131.504 10.5747V16.5944H128.606V1.44263H131.504V7.52383C131.806 6.75941 132.299 6.16563 132.984 5.74247C133.683 5.30566 134.485 5.08725 135.389 5.08725Z" fill="black"/>
<path d="M146.717 5.10773C147.676 5.10773 148.498 5.33296 149.184 5.78342C149.869 6.23388 150.355 6.84132 150.643 7.60573V5.25106H153.521V16.5944H150.643V14.2193C150.355 14.9837 149.869 15.598 149.184 16.0621C148.498 16.5125 147.676 16.7378 146.717 16.7378C145.758 16.7378 144.894 16.5057 144.127 16.0416C143.359 15.5775 142.756 14.9086 142.318 14.035C141.893 13.1477 141.681 12.1103 141.681 10.9228C141.681 9.73518 141.893 8.70458 142.318 7.83096C142.756 6.94369 143.359 6.268 144.127 5.80389C144.894 5.33978 145.758 5.10773 146.717 5.10773ZM147.621 7.62621C146.717 7.62621 145.991 7.91969 145.442 8.50665C144.894 9.09361 144.62 9.89898 144.62 10.9228C144.62 11.9465 144.894 12.7519 145.442 13.3389C145.991 13.9122 146.717 14.1988 147.621 14.1988C148.498 14.1988 149.218 13.9053 149.78 13.3184C150.355 12.7178 150.643 11.9192 150.643 10.9228C150.643 9.91263 150.355 9.11409 149.78 8.52713C149.218 7.92651 148.498 7.62621 147.621 7.62621Z" fill="black"/>
<path d="M159.046 7.42145C159.471 6.69799 160.033 6.1315 160.731 5.72199C161.43 5.29883 162.211 5.08725 163.075 5.08725V8.17904H162.232C160.108 8.17904 159.046 9.16186 159.046 11.1275V16.5944H156.147V5.25106H159.046V7.42145Z" fill="black"/>
<path d="M169.14 5.10773C170.099 5.10773 170.921 5.33296 171.606 5.78342C172.292 6.23388 172.778 6.84132 173.066 7.60573V5.25106H175.944V16.5944H173.066V14.2193C172.778 14.9837 172.292 15.598 171.606 16.0621C170.921 16.5125 170.099 16.7378 169.14 16.7378C168.18 16.7378 167.317 16.5057 166.55 16.0416C165.782 15.5775 165.179 14.9086 164.741 14.035C164.316 13.1477 164.103 12.1103 164.103 10.9228C164.103 9.73518 164.316 8.70458 164.741 7.83096C165.179 6.94369 165.782 6.268 166.55 5.80389C167.317 5.33978 168.18 5.10773 169.14 5.10773ZM170.044 7.62621C169.14 7.62621 168.413 7.91969 167.865 8.50665C167.317 9.09361 167.043 9.89898 167.043 10.9228C167.043 11.9465 167.317 12.7519 167.865 13.3389C168.413 13.9122 169.14 14.1988 170.044 14.1988C170.921 14.1988 171.641 13.9053 172.202 13.3184C172.778 12.7178 173.066 11.9192 173.066 10.9228C173.066 9.91263 172.778 9.11409 172.202 8.52713C171.641 7.92651 170.921 7.62621 170.044 7.62621Z" fill="black"/>
<path d="M184.655 14.1169V16.5944H183.134C181.859 16.5944 180.879 16.2873 180.194 15.6731C179.523 15.0588 179.187 14.035 179.187 12.6017V7.68763H177.604V5.25106H179.187V2.44592H182.085V5.25106H184.634V7.68763H182.085V12.6427C182.085 13.1887 182.195 13.5709 182.414 13.7893C182.633 14.0077 183.003 14.1169 183.524 14.1169H184.655Z" fill="black"/>
<defs>
<linearGradient id="paint0_linear_572_1097" x1="11.0432" y1="2.47714" x2="10.9996" y2="26.1077" gradientUnits="userSpaceOnUse">
<stop stop-color="#741E4D"/>
<stop offset="0.392993" stop-color="#D83146"/>
<stop offset="0.780559" stop-color="#FE4B3D"/>
</linearGradient>
</defs>
</svg>
